<?xml version="1.0" standalone="no"?>
<!DOCTYPE svg PUBLIC "-//W3C//DTD SVG 20010904//EN"
 "http://www.w3.org/TR/2001/REC-SVG-20010904/DTD/svg10.dtd">
<svg version="1.0" xmlns="http://www.w3.org/2000/svg"
 width="359.000000pt" height="359.000000pt" viewBox="0 0 359.000000 359.000000"
 preserveAspectRatio="xMidYMid meet">
<metadata>
Created by potrace 1.14, written by Peter Selinger 2001-2017
</metadata>
<g transform="translate(0.000000,359.000000) scale(0.100000,-0.100000)"
fill="#000000" stroke="none">
<path d="M1134 2466 c-34 -8 -70 -19 -80 -24 -11 -5 -39 -20 -64 -32 -89 -45
-211 -149 -281 -240 l-25 -33 1 144 c0 79 -3 152 -7 161 -7 15 -33 16 -260 15
-191 -2 -252 -5 -256 -14 -2 -7 2 -15 10 -17 82 -23 103 -34 128 -63 17 -18
33 -46 37 -61 9 -36 9 -1209 0 -1244 -4 -15 -20 -43 -37 -61 -25 -30 -44 -39
-129 -64 -10 -2 -11 -7 -4 -14 7 -7 123 -11 339 -11 181 1 335 1 342 1 21 1
13 31 -8 31 -52 0 -120 47 -143 100 -7 17 -12 184 -13 510 l-2 485 36 55 c40
63 171 195 239 242 62 42 139 70 190 69 135 -2 264 -142 290 -315 4 -23 7
-264 7 -537 l1 -495 -25 -37 c-26 -39 -90 -77 -129 -77 -15 0 -21 -5 -19 -16
3 -14 36 -16 303 -16 420 1 397 0 393 14 -3 7 -21 16 -41 20 -50 10 -84 34
-112 78 l-23 37 -4 494 c-4 471 -6 497 -26 566 -51 169 -161 289 -306 335 -80
26 -240 32 -322 14z"/>
<path d="M2680 2465 c-343 -70 -510 -317 -385 -571 54 -107 176 -203 430 -334
307 -159 388 -237 389 -370 1 -138 -120 -230 -302 -230 -219 1 -354 145 -378
403 -3 40 -7 73 -9 75 -8 9 -129 -95 -156 -134 -106 -155 8 -333 256 -399 95
-25 302 -31 418 -11 361 61 539 253 482 518 -13 57 -62 141 -112 192 -75 75
-195 149 -391 241 -99 46 -206 98 -238 116 -70 39 -153 121 -155 152 -1 12 -3
33 -4 47 -5 45 33 126 79 168 71 65 194 91 293 62 127 -38 243 -195 260 -351
3 -32 10 -59 15 -59 6 0 39 14 74 30 106 51 140 118 108 212 -33 99 -156 192
-309 234 -79 21 -280 26 -365 9z"/>
</g>
</svg>
